<?xml version="1.0" encoding="utf-8"?>
<!-- Generator: Adobe Illustrator 22.1.0, SVG Export Plug-In . SVG Version: 6.00 Build 0)  -->
<svg version="1.1" id="レイヤー_1" xmlns="http://www.w3.org/2000/svg" xmlns:xlink="http://www.w3.org/1999/xlink" x="0px"
	 y="0px" viewBox="0 0 994 159" style="enable-background:new 0 0 994 159;" xml:space="preserve">
<style type="text/css">
	.st0{fill:none;stroke:#FFFFFF;stroke-width:20;stroke-linecap:round;stroke-linejoin:round;stroke-miterlimit:10;}
	.st1{fill:none;stroke:#FFFFFF;stroke-width:24;stroke-linecap:round;stroke-linejoin:round;stroke-miterlimit:10;}
	.st2{fill:none;stroke:#FFFFFF;stroke-width:26;stroke-linecap:round;stroke-linejoin:round;stroke-miterlimit:10;}
	.st3{fill:none;stroke:#FFFFFF;stroke-width:25;stroke-linecap:round;stroke-linejoin:round;stroke-miterlimit:10;}
</style>
<polyline class="st0" points="27,114 10,149 111,49 164,10 158,31 95,134 100,143 136,118 "/>
<polyline class="st1" points="72,72 51,76 37,88 155,87 "/>
<line class="st2" x1="155" y1="68" x2="213" y2="68"/>
<polyline class="st0" points="146,114 169,94 208,38 162,107 155,144 200,112 215,86 238,68 251,66 252,68 235,73 215,91 203,115 
	206,132 220,136 237,123 250,102 254,80 249,78 242,91 237,106 246,117 252,120 263,109 285,91 291,82 293,77 291,76 281,82 274,92 
	269,115 270,128 270,136 286,109 298,96 310,84 321,76 331,74 331,76 327,86 321,94 309,113 304,122 300,134 301,137 317,120 
	329,108 338,96 350,86 362,76 364,78 361,88 353,99 341,117 335,130 335,139 353,128 363,121 373,111 376,109 "/>
<polyline class="st2" points="471,61 507,40 511,34 471,33 437,38 419,47 407,66 407,76 456,91 475,101 479,113 466,127 443,136 
	404,139 387,136 373,132 398,115 "/>
<path class="st0" d="M554,72l-28,10l-17,20l-2,21l10,10l12-3l18-18l7-23l-4-10l-9,20l5,19l6,3l17-12l24-28l12-17l10-21V28v-5l-25,28
	l-11,27l-5,17l-3,26l5,12l1,3l22-11l7-9l14-16l22-18l4-7h-3l-7,5l-21,30l2,11l3,10l4,2l16-19l15-16l12-14l14-9v-7l-14,18l-10,30
	l-2,13l-1,7l19-8l8-11l22-21l13-17l18-25l12-11v-3l-11,3l-36,69l-2,18l1,9l4,2l14-10l16-15l18-15l14-15l4-9v-3l-12,8l-13,35l2,8l5,8
	l18-8l16-13l15-23l15-10l18-4v-4h-10l-21,11l-11,18l-2,21l6,10l8,2l8-4l13-11l1.8-3.8l4.2-9.2l5-10v-9l-4-4l-4,4l-2,6l-3,12l7,14h9
	l9-6l5-10l7-10l13-13l2-1l2,1l-9,10l-9,13l-4,8v9l1,10l2,3c0,0,5-3,6-4s5-12,5-12l8-12l11-11l12-12l7-4l6-2l2,4l-3,7l-7,8l-7,11
	l-8,12l-4,11v4l2,3l5-2l11-8l13-10l4.8-4l7.2-6l10-13l7-6l6-6l5-2l5.1-3.2L963,73l2-2l-4-5l-2,5l3,17l1,7l-4,12l-6,6l-5,6l-8,6
	l-11,2l-8-8l4-5l6,8l5,6l5,7h6l14-7l10-9l13-9"/>
<line class="st3" x1="693" y1="68" x2="750" y2="68"/>
<line class="st0" x1="786.5" y1="42.5" x2="773.5" y2="64.5"/>
</svg>
