<?xml version="1.0" encoding="utf-8"?>
<!-- Generator: Adobe Illustrator 22.1.0, SVG Export Plug-In . SVG Version: 6.00 Build 0)  -->
<svg version="1.1" id="レイヤー_1" xmlns="http://www.w3.org/2000/svg" xmlns:xlink="http://www.w3.org/1999/xlink" x="0px"
	 y="0px" viewBox="0 0 972.5 140" style="enable-background:new 0 0 972.5 140;" xml:space="preserve">
<style type="text/css">
	.st0{fill:#CD002C;}
</style>
<g id="logo-hw.svg">
	<path class="st0" d="M99.2,88.4c-7.8,0.3-13.5,0.4-17.2,0.4c-5.6,0-13.3-0.1-23.2-0.4c-2.1,2.3-4.6,5-7.6,8.1c-3,3.1-5.8,6-8.5,8.6
		c-2.7,2.6-5,4.9-6.9,6.7c-1.9,1.9-3.5,3.4-4.7,4.6c-7.2,7-11.9,11.6-14.1,13.8c-2.2,2.1-4.5,4.1-6.9,5.8c-2.4,1.7-4.6,2.6-6.6,2.6
		c-2.3,0-3.4-1-3.4-3.1c0-2.3,1.6-5.8,4.9-10.5c3.3-4.8,6.9-9,11-12.6c4.1-3.6,7.5-5.5,10.1-5.5c0.7,0,1.7,0.3,3,1L47.6,88
		c-2.3-0.3-5.4-0.5-9.2-0.6c-3.8-0.1-6.3-0.4-7.6-0.8c-1.3-0.5-2-1.6-2-3.3c0-2.8,3-7.2,9-13.2c3.3-3.3,6.3-5.4,9.2-6.3
		c2.9-0.9,8.3-1.4,16.4-1.5c-4.8,0.7-8.1,1.4-10.1,2.3c-2,0.9-3.1,2.2-3.3,4c1.9,0,3.6,0,5.2,0c1.6,0,3.7,0,6.2,0
		c2.6,0,4.5-0.1,5.7-0.1c10.7-10.4,20.4-19.5,29.1-27.2c8.7-7.7,17.9-15,27.6-22s20-13.3,30.9-19.1c2.1,2.8,3.2,5.7,3.2,8.8
		c0,2.5-0.8,5.5-2.5,8.8s-5.2,9.6-10.5,18.7c-5.4,9.1-10.8,18.9-16.4,29.2c1.8,0,3.3,0,4.5,0c1.2,0,2.5,0.1,3.9,0.1
		c3.7,0,6,0.1,6.8,0.2c0.8,0.1,1.2,0.8,1.2,2c0,0.5-0.5,1.4-1.5,2.8c-1,1.3-2.8,3.5-5.3,6.6c-2.5,3.1-5,6.2-7.4,9.4l-14.4,1.2
		c-7.6,14.3-11.4,22.4-11.4,24.2c0,2.7,1.4,4,4.2,4c1.4,0,7-2.9,17-8.6l-0.8,5.2c-5.3,4-9.5,7.2-12.5,9.5c-3,2.3-5.5,4.2-7.7,5.8
		c-2.2,1.5-4.2,2.7-6,3.4c-1.8,0.7-3.6,1.1-5.4,1.1c-2.1,0-4.3-1-6.3-3c-2.1-2-3.1-4.8-3.1-8.4c0-1.5,0.6-3.6,1.7-6.4
		c1.1-2.8,2.3-5.4,3.6-8S94.1,98,99.2,88.4z M80.8,66.2l31.6-0.6c3.7-6.3,6.7-11.4,9-15.3c2.3-3.9,4.8-8.2,7.6-12.7
		c2.8-4.6,5.1-8.5,7.1-11.7c2-3.2,4.2-6.8,6.6-10.8c-4.7,2.9-9.5,6.2-14.4,9.8c-4.9,3.6-10.4,7.9-16.5,12.9
		c-6.1,5-11.6,9.7-16.3,14.1C90.9,56.1,85.9,60.9,80.8,66.2z"/>
	<path class="st0" d="M175,47.2h4.2c3.5-6.2,6.6-10.6,9.4-13.1c2.8-2.6,6-3.9,9.6-3.9c3.6,0,5.4,0.8,5.4,2.4c0,0.8-1.4,2.9-4.2,6.3
		c-2.8,3.5-4.9,6.3-6.3,8.7c2.2,0.3,4.2,0.5,5.9,0.7c1.7,0.2,3.1,0.4,4.1,0.5c-3.7,6.9-8.4,14-14,21.2c-1.8-0.1-3.4-0.2-4.6-0.3
		c-1.2-0.1-2.5-0.2-3.8-0.3s-2.8-0.2-4.6-0.3c-3.5,5.7-6.5,10.7-8.8,15.2c-2.4,4.5-4.2,8.5-5.5,12.3s-1.9,7.2-1.9,10.5
		c0,4.5,1.8,6.7,5.4,6.7c2.5,0,5.7-1.3,9.7-4s9.4-6.7,16.1-12.2v6.5c-17.6,19.1-30.6,28.6-39,28.6c-2.9,0-5.3-1.1-7.1-3.4
		c-1.8-2.3-2.7-5.2-2.7-8.8c0-2.4,0.5-5.3,1.5-8.6c1-3.3,2.8-8.3,5.4-15c-0.9,0.8-1.8,1.5-2.6,2.3c-0.8,0.7-1.6,1.4-2.2,2.1
		c-0.7,0.6-1.4,1.3-2.2,2s-1.6,1.4-2.3,2.1v-6.7c6.8-5.7,15.1-15.8,24.8-30.2c-1-0.1-1.9-0.1-2.7-0.1c-0.8,0-1.9,0-3,0
		c-3.8,0-6.7,0.3-8.6,0.8c-0.8,0.2-1.5,0.4-2.2,0.6c-0.7,0.2-1.2,0.3-1.4,0.3c-0.3,0-0.4-0.2-0.4-0.6c0-2.1,1.3-5.4,4-9.7
		c2.1-3.6,4.2-6.3,6.1-8.1c1.9-1.8,4.3-2.9,7-3.6C166.1,47.5,170,47.2,175,47.2z"/>
	<path class="st0" d="M253.5,97.7v6.5c-4.3,3.9-7.7,6.5-10.4,7.8c-2.6,1.3-6.3,1.8-11.2,1.6c-8.5,10-15.9,15-22.4,15
		c-3.6,0-7-1.2-10-3.6c-3-2.4-5.4-5.7-7.2-9.9c-1.8-4.2-2.7-8.8-2.7-14c0-4.2,1.4-8.8,4.2-13.9c2.8-5.1,6.3-9.8,10.7-14.2
		s9.1-7.9,14.1-10.6c5-2.7,9.7-4.1,14-4.1c3.1,0,5.5,0.5,7.2,1.4c1.8,0.9,2.6,2.3,2.6,4c0,1.3-0.7,2.8-2.2,4.5
		c2.5,0.5,4.2,1.4,5.1,2.6c0.9,1.2,1.4,3.4,1.4,6.6c0,3.1-0.7,7.1-2.2,11.8c-1.5,4.8-3.5,9.2-6,13.4l1.8,1.8h1.5
		c1.1,0,2.2-0.3,3.3-0.8c1.1-0.6,2-1.1,2.9-1.8C248.8,101.2,250.6,99.8,253.5,97.7z M233.4,72c-5.4,3.3-10,6.2-13.9,8.8
		c-3.8,2.6-7.1,5.3-9.8,8c-2.7,2.7-4.5,5.4-5.4,8.2c-1.6,7.3-2.4,11.2-2.4,11.8c0,4.3,3,6.4,9,6.4c2.8,0,7.5-2.4,14.1-7.2
		c-1.1-3.1-1.7-6-1.7-8.8c0-4.1,0.8-8.3,2.5-12.5C227.6,82.4,230.1,77.5,233.4,72z"/>
	<path class="st0" d="M297.9,111.2c9-7.9,16.7-14.9,23.1-20.8c6.4-5.9,11.5-10.5,15.2-13.9c3.7-3.4,6.9-6.2,9.7-8.6
		c2.8-2.3,4.6-3.5,5.4-3.5c1.5-0.1,2.9,1.5,4.3,4.6c1.4,3.2,2.1,5.7,2.1,7.6c0,1.2-2.1,4.2-6.2,8.7c-4.1,4.6-7.2,8.3-9.3,11
		s-3.1,5.6-3.1,8.6c0,1.8,0.6,3.2,1.8,4.2s2.6,1.6,4.2,1.6c1.9,0,4.2-1,6.8-2.9s6.8-5.4,12.5-10.4v6.9c-5.7,5.3-10.8,9.9-15.4,13.8
		c-4.6,3.9-8.6,6.8-12.1,8.7s-6.3,2.9-8.5,2.9c-2,0-3.7-0.8-5.1-2.3s-2.1-3.4-2.1-5.7c0-2.2,0.4-4.5,1.2-6.7c0.8-2.3,2-5,3.6-8.1
		c1.6-3.1,3.8-6.9,6.4-11.3c2.7-4.4,5.1-8.4,7.3-12.1c-6.6,5.4-12.5,10.6-17.7,15.6c-5.1,5-9.3,9.4-12.6,13.1
		c-3.3,3.7-5.8,6.7-7.7,8.8c-3.6,4-7,6.1-10.2,6.1c-3.4,0-5.1-2.4-5.1-7.2c0-2,1.3-5.5,3.8-10.5c2.5-5,6.2-11.5,10.8-19.3
		c0.4-0.5,0.6-1.3,0.6-2.4c0-1.3-0.7-2-2-2c-1.4,0-3.5,1.4-6.2,4.1c-2.7,2.7-7.9,8.3-15.7,16.9c-2.1,2.4-4.6,5.6-7.3,9.4
		c-2.7,3.9-4.6,6.5-5.8,7.8c-1.2,1.3-2.3,2-3.5,2c-2.3,0-4.5-2.1-6.5-6.2c-2-4.2-3-9-3-14.6c0-4,0.7-7.5,2-10.4
		c1.3-2.9,3.4-6.6,6.2-10.9c4.4-6.3,7.9-10.8,10.7-13.5c2.8-2.7,5.7-4.1,8.7-4.1c1.9,0,3.5,0.4,4.8,1.1c1.3,0.7,2,1.8,2,3.1
		c0,1.4-1.2,3.6-3.6,6.7c-2.4,3.1-5.4,6.3-9,9.7c-2,1.9-3.8,4.2-5.6,7c-1.8,2.8-2.6,4.8-2.6,6c0,1.8,0.7,2.6,2.1,2.6
		c1.1,0,3.9-2.3,8.4-6.8c4.5-4.6,9.4-9.5,14.8-14.9s10.4-9.8,14.9-13.4c4.6-3.5,8.5-5.3,11.7-5.3c2,0,3.6,0.7,4.8,2.2
		s1.9,3.3,1.9,5.4c0,1.4-1,4-2.9,7.8c-2,3.7-4.8,8.4-8.5,13.9C308.7,96.8,303.9,103.4,297.9,111.2z"/>
	<path class="st0" d="M464.7,100.4c-1.6-3-4.1-5.7-7.3-8.1c-3.3-2.4-6.9-4.3-11-5.8c-4.1-1.5-8.3-2.6-12.7-3.3
		c-13.2-2-25.4-6.2-36.8-12.8c-1-0.5-2-1.6-3.1-3.3c-1.1-1.7-1.7-3.3-1.7-4.9c0-5.7,1-11.5,2.9-17.2c1.9-5.8,4.4-10.3,7.4-13.5
		c4.8-5.4,13.5-10.1,26-14.2c12.5-4,26.6-6.1,42.3-6.1c9.4,0,16.6,0.7,21.7,2.1c5.1,1.4,7.7,3.6,7.7,6.6c0,4.9-0.7,8.7-2,11.3
		c-1.3,2.7-2.8,4.4-4.3,5.3c-1.5,0.9-4.2,2.1-8.1,3.6c-4.1,1.4-7.7,2.9-10.7,4.5s-5.6,3.1-7.8,4.5c-2.1,1.4-3.5,2.1-4,2.1
		c-0.7,0-1-0.3-1-0.8c0-1.1,1.2-2.8,3.5-5c2.3-2.2,5.2-4.2,8.5-5.9c3.6-1.9,5.4-3.1,5.4-3.6c0-0.8-2-1.3-6-1.3
		c-12,0-23.2,1.1-33.4,3.2c-10.2,2.1-18.3,5-24.2,8.5c-5.9,3.5-8.8,7.1-8.8,10.7c0,2.3,1.2,3.9,3.7,4.8c2.4,0.9,7.8,2.5,16.2,4.7
		c8.3,2.2,15.8,4.8,22.4,7.6c9.4,4,16.4,8.2,21,12.6c4.6,4.4,6.8,9.2,6.8,14.6c0,3.7-0.9,7.4-2.7,11.2c-1.8,3.7-4.4,7.2-7.9,10.3
		c-3.5,3.1-7.4,5.7-11.9,7.7c-3.8,1.6-8.7,3.2-14.5,4.6c-5.8,1.4-12.1,2.6-18.9,3.4c-6.8,0.8-13.3,1.2-19.5,1.2
		c-11.4,0-20.6-1.1-27.5-3.2s-10.4-5.4-10.4-9.8c0-2,1.2-5,3.5-9.1c2.3-4.1,5.1-6.9,8.3-8.3c2.8-1.1,5.5-1.7,8.1-1.9
		c2.6-0.2,3.9,0.1,3.9,0.9c0,0.2-0.1,0.4-0.3,0.6s-0.4,0.4-0.7,0.5c-0.3,0.1-0.5,0.3-0.8,0.4c-1.3,0.5-2.4,0.9-3.2,1.2
		c-0.8,0.3-1.5,0.6-2,0.9s-0.7,0.7-0.7,1.2c0,1.4,6.7,2.1,20.2,2.1c11.7,0,21.3-0.4,28.8-1.3c7.5-0.8,14.1-2.4,19.8-4.6
		C454.8,107.4,460.1,104.3,464.7,100.4z"/>
	<path class="st0" d="M555.7,97.7v6.5c-4.3,3.9-7.7,6.5-10.4,7.8c-2.6,1.3-6.3,1.8-11.2,1.6c-8.5,10-15.9,15-22.4,15
		c-3.6,0-7-1.2-10-3.6c-3-2.4-5.4-5.7-7.2-9.9c-1.8-4.2-2.7-8.8-2.7-14c0-4.2,1.4-8.8,4.2-13.9c2.8-5.1,6.3-9.8,10.7-14.2
		s9.1-7.9,14.1-10.6c5-2.7,9.7-4.1,14-4.1c3.1,0,5.5,0.5,7.2,1.4c1.8,0.9,2.6,2.3,2.6,4c0,1.3-0.7,2.8-2.2,4.5
		c2.5,0.5,4.2,1.4,5.1,2.6c0.9,1.2,1.4,3.4,1.4,6.6c0,3.1-0.7,7.1-2.2,11.8c-1.5,4.8-3.5,9.2-6,13.4l1.8,1.8h1.5
		c1.1,0,2.2-0.3,3.3-0.8c1.1-0.6,2-1.1,2.9-1.8C550.9,101.2,552.8,99.8,555.7,97.7z M535.5,72c-5.4,3.3-10,6.2-13.9,8.8
		c-3.8,2.6-7.1,5.3-9.8,8c-2.7,2.7-4.5,5.4-5.4,8.2c-1.6,7.3-2.4,11.2-2.4,11.8c0,4.3,3,6.4,9,6.4c2.8,0,7.5-2.4,14.1-7.2
		c-1.1-3.1-1.7-6-1.7-8.8c0-4.1,0.8-8.3,2.5-12.5C529.7,82.4,532.2,77.5,535.5,72z"/>
	<path class="st0" d="M602.1,96.8v7.2c-13.6,18-24.7,27.1-33.2,27.1c-4.6,0-8.3-2.5-10.9-7.6c-2.6-5-4-11.7-4-19.9
		c0-6.6,1.6-14.5,4.7-23.7c3.1-9.1,7.3-18.4,12.5-27.8c5.2-9.4,10.7-17.6,16.3-24.6c5.6-7,10.9-11.9,15.7-14.7
		c2-1.2,3.5-1.8,4.6-1.8c1.4,0,2.3,0.6,2.7,1.8c0.5,1.2,0.7,3.3,0.7,6.2c0,9-3.7,20.2-11,33.3c-7.4,13.2-17.6,26.6-30.8,40.4
		c-0.7,3.4-1,6-1,7.8c0,4.2,0.9,7.6,2.7,10.2c1.8,2.6,4.3,3.9,7.5,3.9c1.6,0,3.4-0.6,5.3-1.9c1.9-1.3,3.9-2.8,6-4.7
		C592,106.1,596.1,102.4,602.1,96.8z M572.9,79.2c3.4-3.3,6.7-7.1,9.8-11.3c3.2-4.2,6.1-8.8,8.9-13.6c2.8-4.8,5-9.1,6.6-13
		c1.6-3.8,2.4-6.7,2.4-8.7c0-1.5-0.5-2.2-1.6-2.2c-0.4,0-1.1,0.4-2.2,1.1c-4,3.3-8.4,9.6-13.4,19.1C578.5,60,575,69.6,572.9,79.2z"
		/>
	<path class="st0" d="M647.3,91.2c-9.4,12.5-16.6,21.4-21.5,26.7c-4.9,5.3-8.9,7.9-12.1,7.9c-2.5,0-4.8-1-6.8-3.1
		c-2.1-2.1-3.7-4.8-4.8-8.3c-1.1-3.5-1.7-7.2-1.7-11.2c0-2.6,0.2-4.9,0.7-7c0.5-2.1,1.4-4.4,2.8-6.9c1.4-2.5,3.2-5.2,5.4-8.2
		s5-6.2,8.3-10c2-2.3,3.6-4.2,4.9-5.8c1.3-1.6,2.6-2.6,3.9-3.2c1.3-0.6,3.3-0.8,6.2-0.8c2.1,0,4.1,0.3,6,0.8
		c1.9,0.6,2.8,1.1,2.8,1.7c0,1.2-1,3.3-2.9,6.3c-1.9,3.1-5,6.8-9.3,11.2c-4.3,4.4-9.2,8.7-14.8,12.9c-1.2,3.8-1.9,6.8-1.9,8.8
		c0,2.8,1.1,4.2,3.2,4.2c0.8,0,2.1-0.7,3.9-2c1.8-1.3,4.9-3.9,9.2-7.7c4.3-3.8,8.2-7.2,11.7-10.1c2.5-2.2,5.5-5.5,8.8-9.9
		c3.4-4.4,6.1-7.7,8.2-9.9c4.8-5.1,8.1-8.4,9.9-9.9c1.8-1.5,3.5-2.3,5.1-2.3c1.6,0,2.6,0.5,3.2,1.5c0.6,1,0.8,3,0.8,6
		c0,1.4-0.1,2.5-0.4,3.3c-0.3,0.8-0.8,1.9-1.6,3.3c-0.8,1.3-2.5,3.8-4.9,7.4c-2.5,3.6-5.4,7.8-8.8,12.7c-1.8,2.6-3.4,5.5-4.8,8.5
		c-1.4,3.1-2.1,5.4-2.1,7c0,3.4,1.3,5.1,4,5.1c2.2,0,4.8-0.9,7.7-2.7c2.9-1.8,7.4-5.1,13.5-9.9v6.5c-7.6,7-13.2,12.1-16.9,15.3
		c-3.6,3.2-6.8,5.6-9.5,7.2c-2.7,1.6-5.2,2.4-7.6,2.4c-5.5,0-8.2-3.3-8.2-9.8c0-2.5,0.8-5.8,2.4-10C641,105.2,643.6,99.2,647.3,91.2
		z"/>
	<path class="st0" d="M712.5,47.2h4.2c3.5-6.2,6.6-10.6,9.4-13.1c2.8-2.6,6-3.9,9.6-3.9c3.6,0,5.4,0.8,5.4,2.4
		c0,0.8-1.4,2.9-4.2,6.3c-2.8,3.5-4.9,6.3-6.3,8.7c2.2,0.3,4.2,0.5,5.9,0.7c1.7,0.2,3.1,0.4,4.1,0.5c-3.7,6.9-8.4,14-14,21.2
		c-1.8-0.1-3.4-0.2-4.6-0.3c-1.2-0.1-2.5-0.2-3.8-0.3s-2.8-0.2-4.6-0.3c-3.5,5.7-6.5,10.7-8.8,15.2c-2.4,4.5-4.2,8.5-5.5,12.3
		s-1.9,7.2-1.9,10.5c0,4.5,1.8,6.7,5.4,6.7c2.5,0,5.7-1.3,9.7-4s9.4-6.7,16.1-12.2v6.5c-17.6,19.1-30.6,28.6-39,28.6
		c-2.9,0-5.3-1.1-7.1-3.4c-1.8-2.3-2.7-5.2-2.7-8.8c0-2.4,0.5-5.3,1.5-8.6c1-3.3,2.8-8.3,5.4-15c-0.9,0.8-1.8,1.5-2.6,2.3
		c-0.8,0.7-1.6,1.4-2.2,2.1c-0.7,0.6-1.4,1.3-2.2,2s-1.6,1.4-2.3,2.1v-6.7c6.8-5.7,15.1-15.8,24.8-30.2c-1-0.1-1.9-0.1-2.7-0.1
		c-0.8,0-1.9,0-3,0c-3.8,0-6.7,0.3-8.6,0.8c-0.8,0.2-1.5,0.4-2.2,0.6c-0.7,0.2-1.2,0.3-1.4,0.3c-0.3,0-0.4-0.2-0.4-0.6
		c0-2.1,1.3-5.4,4-9.7c2.1-3.6,4.2-6.3,6.1-8.1c1.9-1.8,4.3-2.9,7-3.6C703.6,47.5,707.5,47.2,712.5,47.2z"/>
	<path class="st0" d="M774.9,97.9v7.1c-6.3,8.1-12.2,14.3-17.7,18.4c-5.5,4.1-10.1,6.2-14,6.2c-5.3,0-9.3-2.8-11.9-8.4
		c-2.6-5.6-3.9-11.7-3.9-18.4c0-2.5,0.3-5,0.8-7.3c0.5-2.3,1.1-4.2,1.9-5.7c0.7-1.5,2.1-3.8,4-7c9.2-14.4,17.7-21.6,25.4-21.6
		c4,0,6,1.5,6,4.6c0,2.1-1.3,5.3-3.9,9.8c-2.6,4.4-4.9,7.6-6.9,9.5c-5.7,5.5-9.4,9.3-11.1,11.4c-1.7,2.1-2.6,4.6-2.6,7.3
		c0,2.3,0.9,4.3,2.6,5.9s4,2.3,6.8,2.3c3.1,0,6.4-1.1,10.1-3.4C764.3,106.4,769,102.8,774.9,97.9z M768.3,54.2
		c-1.6,0-3.2-0.6-4.6-1.9c-1.5-1.2-2.2-2.8-2.2-4.7c0-2.9,1.4-6.1,4.1-9.6s5.6-5.3,8.5-5.3c2,0,3.6,0.6,4.9,1.8c1.3,1.2,2,2.9,2,5.2
		c0,2.8-1.3,5.9-4,9.3C774.2,52.5,771.3,54.2,768.3,54.2z"/>
	<path class="st0" d="M836.8,97.7v6.5c-4.3,3.9-7.7,6.5-10.4,7.8c-2.6,1.3-6.3,1.8-11.2,1.6c-8.5,10-15.9,15-22.4,15
		c-3.6,0-7-1.2-10-3.6c-3-2.4-5.4-5.7-7.2-9.9c-1.8-4.2-2.7-8.8-2.7-14c0-4.2,1.4-8.8,4.2-13.9c2.8-5.1,6.3-9.8,10.7-14.2
		s9.1-7.9,14.1-10.6c5-2.7,9.7-4.1,14-4.1c3.1,0,5.5,0.5,7.2,1.4c1.8,0.9,2.6,2.3,2.6,4c0,1.3-0.7,2.8-2.2,4.5
		c2.5,0.5,4.2,1.4,5.1,2.6c0.9,1.2,1.4,3.4,1.4,6.6c0,3.1-0.7,7.1-2.2,11.8c-1.5,4.8-3.5,9.2-6,13.4l1.8,1.8h1.5
		c1.1,0,2.2-0.3,3.3-0.8c1.1-0.6,2-1.1,2.9-1.8C832.1,101.2,834,99.8,836.8,97.7z M816.7,72c-5.4,3.3-10,6.2-13.9,8.8
		c-3.8,2.6-7.1,5.3-9.8,8c-2.7,2.7-4.5,5.4-5.4,8.2c-1.6,7.3-2.4,11.2-2.4,11.8c0,4.3,3,6.4,9,6.4c2.8,0,7.5-2.4,14.1-7.2
		c-1.1-3.1-1.7-6-1.7-8.8c0-4.1,0.8-8.3,2.5-12.5C810.9,82.4,813.4,77.5,816.7,72z"/>
	<path class="st0" d="M902.4,80.2c-11.5,12.8-17.2,21.6-17.2,26.7c0,2.8,1.1,4.2,3.4,4.2c1.9,0,4.3-1,7.4-3c3-2,7.8-5.5,14.2-10.6
		v6.7c-9.2,9.1-16.3,15.7-21.3,19.7c-4.9,4-9,6.1-12.1,6.1c-5.3,0-8-3.5-8-10.5c0-2.1,0.3-4.1,1-6.2c0.7-2,1.5-4.1,2.7-6.3
		c1.1-2.2,2.9-5.3,5.2-9.4c2.3-4.1,5-8.7,8.1-13.8c-3.7,1.9-8.4,5.6-14,11.2c-3.6,3.5-6.7,6.9-9.3,10c-2.5,3.2-5.3,6.7-8.2,10.5
		c-2.9,3.9-5,6.5-6.3,7.8c-1.3,1.3-2.7,2-4.1,2c-2.1,0-4-2.2-5.8-6.5c-1.8-4.4-2.6-9.4-2.6-15.2c0-3.6,0.4-6.4,1.2-8.4
		c0.8-2,2.4-4.9,4.8-8.6c4.5-6.9,8.4-12,11.6-15.2c3.3-3.2,6.4-4.8,9.4-4.8c2.1,0,3.8,0.4,5,1.1c1.3,0.7,1.9,1.8,1.9,3.3
		c0,0.7-0.2,1.3-0.6,2.1c-0.4,0.7-0.8,1.4-1.3,2s-1.5,1.7-3.1,3.4c-10.3,11.4-15.4,18.8-15.4,22.2c0,1.9,0.6,2.8,1.9,2.8
		c0.8,0,2.3-1.3,4.5-3.8c2.2-2.5,5.1-5.8,8.7-9.9c3.5-4.1,7.7-8.3,12.6-12.7c4.8-4.4,10.4-8.7,16.6-12.8c3.5-2.4,6.3-3.6,8.6-3.6
		c1,0,2.1,1.4,3.1,4.3c1,2.9,1.5,5.8,1.5,8.7C906.6,75.1,905.2,77.2,902.4,80.2z"/>
	<path class="st0" d="M909.3,100.6v-2.3c16.8-17.7,28.4-30.1,34.7-37.2c1.4-8,4.9-12,10.4-12c1.4,0,2.8,0.4,4.4,1.2l0.6,1.9
		c-0.3,0.8-0.4,1.9-0.4,3.3c0,1.2,0.5,3.5,1.4,6.9c0.9,3.4,1.7,6.2,2.2,8.4c0.5,2.3,0.8,4.9,0.8,7.7c0,4.3-1,8.4-2.9,12.4
		c-2,3.9-4.8,7.7-8.5,11.3s-8.5,7.3-14.4,11.1c2.3,0.4,4.2,0.6,5.6,0.6c2.7,0,5.5-0.7,8.6-2c3.1-1.3,6.2-3.1,9.5-5.4s7-5.2,11.3-8.7
		v6.5c-8.3,8.1-15.8,14.3-22.4,18.5c-6.6,4.2-12.2,6.3-17,6.3c-6.1,0-11.8-2.6-17-7.8c-3.1-3.1-5-6.1-5.7-9
		C909.7,109.3,909.3,105.5,909.3,100.6z M945.7,85.6l-1.8-14.3c-4,4.6-12.7,13.3-25.9,26.3c3.9,0.8,6.6,2,8,3.4
		c1.4,1.4,3.5,4.2,6.1,8.3c4.4-1.8,7.8-4.3,10.2-7.5c2.4-3.2,3.6-7.5,3.6-12.9c0-0.6,0-1.2,0-1.8C945.8,86.7,945.8,86.2,945.7,85.6z
		"/>
</g>
</svg>
